<mxfile host="app.diagrams.net" agent="Mozilla/5.0 (Windows NT 10.0; Win64; x64) AppleWebKit/537.36 (KHTML, like Gecko) Chrome/140.0.0.0 Safari/537.36" version="28.2.3">
  <diagram name="PÃ¡gina-1" id="9JhQFZViJIDRqo_Ol30y">
    <mxGraphModel dx="542" dy="1393" grid="1" gridSize="10" guides="1" tooltips="1" connect="1" arrows="1" fold="1" page="1" pageScale="1" pageWidth="850" pageHeight="1100" math="0" shadow="0">
      <root>
        <mxCell id="0" />
        <mxCell id="1" parent="0" />
        <mxCell id="5PrmdtmWxsQxAu5Mn6Zc-1" value="0" style="ellipse;whiteSpace=wrap;html=1;aspect=fixed;" vertex="1" parent="1">
          <mxGeometry x="120" y="200" width="40" height="40" as="geometry" />
        </mxCell>
        <mxCell id="5PrmdtmWxsQxAu5Mn6Zc-2" value="" style="endArrow=classic;html=1;rounded=0;entryX=0;entryY=0.5;entryDx=0;entryDy=0;" edge="1" parent="1" target="5PrmdtmWxsQxAu5Mn6Zc-1">
          <mxGeometry width="50" height="50" relative="1" as="geometry">
            <mxPoint x="80" y="220" as="sourcePoint" />
            <mxPoint x="300" y="190" as="targetPoint" />
          </mxGeometry>
        </mxCell>
        <mxCell id="5PrmdtmWxsQxAu5Mn6Zc-3" value="" style="endArrow=none;html=1;rounded=0;exitX=1;exitY=0.5;exitDx=0;exitDy=0;" edge="1" parent="1" source="5PrmdtmWxsQxAu5Mn6Zc-1">
          <mxGeometry width="50" height="50" relative="1" as="geometry">
            <mxPoint x="250" y="240" as="sourcePoint" />
            <mxPoint x="200" y="220" as="targetPoint" />
          </mxGeometry>
        </mxCell>
        <mxCell id="5PrmdtmWxsQxAu5Mn6Zc-4" value="" style="endArrow=none;html=1;rounded=0;" edge="1" parent="1">
          <mxGeometry width="50" height="50" relative="1" as="geometry">
            <mxPoint x="200" y="220" as="sourcePoint" />
            <mxPoint x="200" as="targetPoint" />
          </mxGeometry>
        </mxCell>
        <mxCell id="5PrmdtmWxsQxAu5Mn6Zc-5" value="" style="endArrow=none;html=1;rounded=0;" edge="1" parent="1">
          <mxGeometry width="50" height="50" relative="1" as="geometry">
            <mxPoint x="200" y="220" as="sourcePoint" />
            <mxPoint x="200" y="1560" as="targetPoint" />
          </mxGeometry>
        </mxCell>
        <mxCell id="5PrmdtmWxsQxAu5Mn6Zc-6" value="" style="endArrow=classic;html=1;rounded=0;" edge="1" parent="1">
          <mxGeometry width="50" height="50" relative="1" as="geometry">
            <mxPoint x="200" as="sourcePoint" />
            <mxPoint x="280" as="targetPoint" />
          </mxGeometry>
        </mxCell>
        <mxCell id="5PrmdtmWxsQxAu5Mn6Zc-7" value="1" style="ellipse;whiteSpace=wrap;html=1;aspect=fixed;" vertex="1" parent="1">
          <mxGeometry x="280" y="-20" width="40" height="40" as="geometry" />
        </mxCell>
        <mxCell id="5PrmdtmWxsQxAu5Mn6Zc-8" value="" style="endArrow=classic;html=1;rounded=0;exitX=0.5;exitY=0;exitDx=0;exitDy=0;" edge="1" parent="1" source="5PrmdtmWxsQxAu5Mn6Zc-7">
          <mxGeometry width="50" height="50" relative="1" as="geometry">
            <mxPoint x="340" y="70" as="sourcePoint" />
            <mxPoint x="360" y="-40" as="targetPoint" />
            <Array as="points">
              <mxPoint x="300" y="-40" />
            </Array>
          </mxGeometry>
        </mxCell>
        <mxCell id="5PrmdtmWxsQxAu5Mn6Zc-9" value="" style="endArrow=classic;html=1;rounded=0;exitX=0.5;exitY=1;exitDx=0;exitDy=0;" edge="1" parent="1" source="5PrmdtmWxsQxAu5Mn6Zc-7">
          <mxGeometry width="50" height="50" relative="1" as="geometry">
            <mxPoint x="340" y="70" as="sourcePoint" />
            <mxPoint x="360" y="40" as="targetPoint" />
            <Array as="points">
              <mxPoint x="300" y="40" />
            </Array>
          </mxGeometry>
        </mxCell>
        <mxCell id="5PrmdtmWxsQxAu5Mn6Zc-11" value="" style="ellipse;whiteSpace=wrap;html=1;aspect=fixed;" vertex="1" parent="1">
          <mxGeometry x="360" y="-60" width="40" height="40" as="geometry" />
        </mxCell>
        <mxCell id="5PrmdtmWxsQxAu5Mn6Zc-10" value="1000" style="ellipse;whiteSpace=wrap;html=1;aspect=fixed;" vertex="1" parent="1">
          <mxGeometry x="365" y="-55" width="30" height="30" as="geometry" />
        </mxCell>
        <mxCell id="5PrmdtmWxsQxAu5Mn6Zc-13" value="=" style="text;html=1;align=center;verticalAlign=middle;whiteSpace=wrap;rounded=0;" vertex="1" parent="1">
          <mxGeometry x="230" y="-20" width="20" height="20" as="geometry" />
        </mxCell>
        <mxCell id="5PrmdtmWxsQxAu5Mn6Zc-14" value="=" style="text;html=1;align=center;verticalAlign=middle;whiteSpace=wrap;rounded=0;" vertex="1" parent="1">
          <mxGeometry x="320" y="-60" width="20" height="20" as="geometry" />
        </mxCell>
        <mxCell id="5PrmdtmWxsQxAu5Mn6Zc-15" value="Distinto" style="text;html=1;align=center;verticalAlign=middle;whiteSpace=wrap;rounded=0;" vertex="1" parent="1">
          <mxGeometry x="310" y="30" width="40" height="10" as="geometry" />
        </mxCell>
        <mxCell id="5PrmdtmWxsQxAu5Mn6Zc-17" value="" style="ellipse;whiteSpace=wrap;html=1;aspect=fixed;" vertex="1" parent="1">
          <mxGeometry x="360" y="20" width="40" height="40" as="geometry" />
        </mxCell>
        <mxCell id="5PrmdtmWxsQxAu5Mn6Zc-18" value="1001" style="ellipse;whiteSpace=wrap;html=1;aspect=fixed;" vertex="1" parent="1">
          <mxGeometry x="365" y="25" width="30" height="30" as="geometry" />
        </mxCell>
        <mxCell id="5PrmdtmWxsQxAu5Mn6Zc-19" value="" style="endArrow=classic;html=1;rounded=0;" edge="1" parent="1">
          <mxGeometry width="50" height="50" relative="1" as="geometry">
            <mxPoint x="200" y="130" as="sourcePoint" />
            <mxPoint x="280" y="130" as="targetPoint" />
          </mxGeometry>
        </mxCell>
        <mxCell id="5PrmdtmWxsQxAu5Mn6Zc-20" value="2" style="ellipse;whiteSpace=wrap;html=1;aspect=fixed;" vertex="1" parent="1">
          <mxGeometry x="280" y="110" width="40" height="40" as="geometry" />
        </mxCell>
        <mxCell id="5PrmdtmWxsQxAu5Mn6Zc-21" value="" style="endArrow=classic;html=1;rounded=0;exitX=0.5;exitY=0;exitDx=0;exitDy=0;" edge="1" parent="1" source="5PrmdtmWxsQxAu5Mn6Zc-20">
          <mxGeometry width="50" height="50" relative="1" as="geometry">
            <mxPoint x="340" y="200" as="sourcePoint" />
            <mxPoint x="360" y="90" as="targetPoint" />
            <Array as="points">
              <mxPoint x="300" y="90" />
            </Array>
          </mxGeometry>
        </mxCell>
        <mxCell id="5PrmdtmWxsQxAu5Mn6Zc-22" value="" style="endArrow=classic;html=1;rounded=0;exitX=0.5;exitY=1;exitDx=0;exitDy=0;" edge="1" parent="1" source="5PrmdtmWxsQxAu5Mn6Zc-20">
          <mxGeometry width="50" height="50" relative="1" as="geometry">
            <mxPoint x="340" y="200" as="sourcePoint" />
            <mxPoint x="360" y="170" as="targetPoint" />
            <Array as="points">
              <mxPoint x="300" y="170" />
            </Array>
          </mxGeometry>
        </mxCell>
        <mxCell id="5PrmdtmWxsQxAu5Mn6Zc-23" value="" style="ellipse;whiteSpace=wrap;html=1;aspect=fixed;" vertex="1" parent="1">
          <mxGeometry x="360" y="70" width="40" height="40" as="geometry" />
        </mxCell>
        <mxCell id="5PrmdtmWxsQxAu5Mn6Zc-24" value="1002" style="ellipse;whiteSpace=wrap;html=1;aspect=fixed;" vertex="1" parent="1">
          <mxGeometry x="365" y="75" width="30" height="30" as="geometry" />
        </mxCell>
        <mxCell id="5PrmdtmWxsQxAu5Mn6Zc-25" value="|" style="text;html=1;align=center;verticalAlign=middle;whiteSpace=wrap;rounded=0;" vertex="1" parent="1">
          <mxGeometry x="230" y="110" width="20" height="20" as="geometry" />
        </mxCell>
        <mxCell id="5PrmdtmWxsQxAu5Mn6Zc-26" value="|" style="text;html=1;align=center;verticalAlign=middle;whiteSpace=wrap;rounded=0;" vertex="1" parent="1">
          <mxGeometry x="320" y="70" width="20" height="20" as="geometry" />
        </mxCell>
        <mxCell id="5PrmdtmWxsQxAu5Mn6Zc-27" value="Distinto" style="text;html=1;align=center;verticalAlign=middle;whiteSpace=wrap;rounded=0;" vertex="1" parent="1">
          <mxGeometry x="310" y="160" width="40" height="10" as="geometry" />
        </mxCell>
        <mxCell id="5PrmdtmWxsQxAu5Mn6Zc-28" value="1003" style="ellipse;whiteSpace=wrap;html=1;aspect=fixed;" vertex="1" parent="1">
          <mxGeometry x="360" y="150" width="40" height="40" as="geometry" />
        </mxCell>
        <mxCell id="5PrmdtmWxsQxAu5Mn6Zc-30" value="" style="endArrow=classic;html=1;rounded=0;" edge="1" parent="1">
          <mxGeometry width="50" height="50" relative="1" as="geometry">
            <mxPoint x="200" y="260" as="sourcePoint" />
            <mxPoint x="280" y="260" as="targetPoint" />
          </mxGeometry>
        </mxCell>
        <mxCell id="5PrmdtmWxsQxAu5Mn6Zc-31" value="3" style="ellipse;whiteSpace=wrap;html=1;aspect=fixed;" vertex="1" parent="1">
          <mxGeometry x="280" y="240" width="40" height="40" as="geometry" />
        </mxCell>
        <mxCell id="5PrmdtmWxsQxAu5Mn6Zc-32" value="" style="endArrow=classic;html=1;rounded=0;exitX=0.5;exitY=0;exitDx=0;exitDy=0;" edge="1" parent="1" source="5PrmdtmWxsQxAu5Mn6Zc-31">
          <mxGeometry width="50" height="50" relative="1" as="geometry">
            <mxPoint x="340" y="330" as="sourcePoint" />
            <mxPoint x="360" y="220" as="targetPoint" />
            <Array as="points">
              <mxPoint x="300" y="220" />
            </Array>
          </mxGeometry>
        </mxCell>
        <mxCell id="5PrmdtmWxsQxAu5Mn6Zc-33" value="" style="endArrow=classic;html=1;rounded=0;exitX=0.5;exitY=1;exitDx=0;exitDy=0;" edge="1" parent="1" source="5PrmdtmWxsQxAu5Mn6Zc-31">
          <mxGeometry width="50" height="50" relative="1" as="geometry">
            <mxPoint x="340" y="330" as="sourcePoint" />
            <mxPoint x="360" y="300" as="targetPoint" />
            <Array as="points">
              <mxPoint x="300" y="300" />
            </Array>
          </mxGeometry>
        </mxCell>
        <mxCell id="5PrmdtmWxsQxAu5Mn6Zc-34" value="" style="ellipse;whiteSpace=wrap;html=1;aspect=fixed;" vertex="1" parent="1">
          <mxGeometry x="360" y="200" width="40" height="40" as="geometry" />
        </mxCell>
        <mxCell id="5PrmdtmWxsQxAu5Mn6Zc-35" value="1004" style="ellipse;whiteSpace=wrap;html=1;aspect=fixed;" vertex="1" parent="1">
          <mxGeometry x="365" y="205" width="30" height="30" as="geometry" />
        </mxCell>
        <mxCell id="5PrmdtmWxsQxAu5Mn6Zc-36" value="&amp;amp;" style="text;html=1;align=center;verticalAlign=middle;whiteSpace=wrap;rounded=0;" vertex="1" parent="1">
          <mxGeometry x="230" y="240" width="20" height="20" as="geometry" />
        </mxCell>
        <mxCell id="5PrmdtmWxsQxAu5Mn6Zc-37" value="&amp;amp;" style="text;html=1;align=center;verticalAlign=middle;whiteSpace=wrap;rounded=0;" vertex="1" parent="1">
          <mxGeometry x="320" y="200" width="20" height="20" as="geometry" />
        </mxCell>
        <mxCell id="5PrmdtmWxsQxAu5Mn6Zc-38" value="Distinto" style="text;html=1;align=center;verticalAlign=middle;whiteSpace=wrap;rounded=0;" vertex="1" parent="1">
          <mxGeometry x="310" y="290" width="40" height="10" as="geometry" />
        </mxCell>
        <mxCell id="5PrmdtmWxsQxAu5Mn6Zc-39" value="1005" style="ellipse;whiteSpace=wrap;html=1;aspect=fixed;" vertex="1" parent="1">
          <mxGeometry x="360" y="280" width="40" height="40" as="geometry" />
        </mxCell>
        <mxCell id="5PrmdtmWxsQxAu5Mn6Zc-40" value="" style="endArrow=classic;html=1;rounded=0;" edge="1" parent="1">
          <mxGeometry width="50" height="50" relative="1" as="geometry">
            <mxPoint x="200" y="390" as="sourcePoint" />
            <mxPoint x="280" y="390" as="targetPoint" />
          </mxGeometry>
        </mxCell>
        <mxCell id="5PrmdtmWxsQxAu5Mn6Zc-41" value="4" style="ellipse;whiteSpace=wrap;html=1;aspect=fixed;" vertex="1" parent="1">
          <mxGeometry x="280" y="370" width="40" height="40" as="geometry" />
        </mxCell>
        <mxCell id="5PrmdtmWxsQxAu5Mn6Zc-42" value="" style="endArrow=classic;html=1;rounded=0;exitX=0.5;exitY=0;exitDx=0;exitDy=0;" edge="1" parent="1" source="5PrmdtmWxsQxAu5Mn6Zc-41">
          <mxGeometry width="50" height="50" relative="1" as="geometry">
            <mxPoint x="340" y="460" as="sourcePoint" />
            <mxPoint x="360" y="350" as="targetPoint" />
            <Array as="points">
              <mxPoint x="300" y="350" />
            </Array>
          </mxGeometry>
        </mxCell>
        <mxCell id="5PrmdtmWxsQxAu5Mn6Zc-43" value="" style="endArrow=classic;html=1;rounded=0;exitX=0.5;exitY=1;exitDx=0;exitDy=0;" edge="1" parent="1" source="5PrmdtmWxsQxAu5Mn6Zc-41">
          <mxGeometry width="50" height="50" relative="1" as="geometry">
            <mxPoint x="340" y="460" as="sourcePoint" />
            <mxPoint x="360" y="430" as="targetPoint" />
            <Array as="points">
              <mxPoint x="300" y="430" />
            </Array>
          </mxGeometry>
        </mxCell>
        <mxCell id="5PrmdtmWxsQxAu5Mn6Zc-44" value="" style="ellipse;whiteSpace=wrap;html=1;aspect=fixed;" vertex="1" parent="1">
          <mxGeometry x="360" y="330" width="40" height="40" as="geometry" />
        </mxCell>
        <mxCell id="5PrmdtmWxsQxAu5Mn6Zc-45" value="1006" style="ellipse;whiteSpace=wrap;html=1;aspect=fixed;" vertex="1" parent="1">
          <mxGeometry x="365" y="335" width="30" height="30" as="geometry" />
        </mxCell>
        <mxCell id="5PrmdtmWxsQxAu5Mn6Zc-46" value="!" style="text;html=1;align=center;verticalAlign=middle;whiteSpace=wrap;rounded=0;" vertex="1" parent="1">
          <mxGeometry x="230" y="370" width="20" height="20" as="geometry" />
        </mxCell>
        <mxCell id="5PrmdtmWxsQxAu5Mn6Zc-47" value="=" style="text;html=1;align=center;verticalAlign=middle;whiteSpace=wrap;rounded=0;" vertex="1" parent="1">
          <mxGeometry x="320" y="330" width="20" height="20" as="geometry" />
        </mxCell>
        <mxCell id="5PrmdtmWxsQxAu5Mn6Zc-48" value="Distinto" style="text;html=1;align=center;verticalAlign=middle;whiteSpace=wrap;rounded=0;" vertex="1" parent="1">
          <mxGeometry x="310" y="420" width="40" height="10" as="geometry" />
        </mxCell>
        <mxCell id="5PrmdtmWxsQxAu5Mn6Zc-49" value="" style="ellipse;whiteSpace=wrap;html=1;aspect=fixed;" vertex="1" parent="1">
          <mxGeometry x="360" y="410" width="40" height="40" as="geometry" />
        </mxCell>
        <mxCell id="5PrmdtmWxsQxAu5Mn6Zc-50" value="1007" style="ellipse;whiteSpace=wrap;html=1;aspect=fixed;" vertex="1" parent="1">
          <mxGeometry x="365" y="415" width="30" height="30" as="geometry" />
        </mxCell>
        <mxCell id="5PrmdtmWxsQxAu5Mn6Zc-51" value="" style="endArrow=classic;html=1;rounded=0;" edge="1" parent="1">
          <mxGeometry width="50" height="50" relative="1" as="geometry">
            <mxPoint x="200" y="520" as="sourcePoint" />
            <mxPoint x="280" y="520" as="targetPoint" />
          </mxGeometry>
        </mxCell>
        <mxCell id="5PrmdtmWxsQxAu5Mn6Zc-52" value="5" style="ellipse;whiteSpace=wrap;html=1;aspect=fixed;" vertex="1" parent="1">
          <mxGeometry x="280" y="500" width="40" height="40" as="geometry" />
        </mxCell>
        <mxCell id="5PrmdtmWxsQxAu5Mn6Zc-53" value="" style="endArrow=classic;html=1;rounded=0;exitX=0.5;exitY=0;exitDx=0;exitDy=0;" edge="1" parent="1" source="5PrmdtmWxsQxAu5Mn6Zc-52">
          <mxGeometry width="50" height="50" relative="1" as="geometry">
            <mxPoint x="340" y="590" as="sourcePoint" />
            <mxPoint x="360" y="480" as="targetPoint" />
            <Array as="points">
              <mxPoint x="300" y="480" />
            </Array>
          </mxGeometry>
        </mxCell>
        <mxCell id="5PrmdtmWxsQxAu5Mn6Zc-54" value="" style="endArrow=classic;html=1;rounded=0;exitX=0.5;exitY=1;exitDx=0;exitDy=0;" edge="1" parent="1" source="5PrmdtmWxsQxAu5Mn6Zc-52">
          <mxGeometry width="50" height="50" relative="1" as="geometry">
            <mxPoint x="340" y="590" as="sourcePoint" />
            <mxPoint x="360" y="560" as="targetPoint" />
            <Array as="points">
              <mxPoint x="300" y="560" />
            </Array>
          </mxGeometry>
        </mxCell>
        <mxCell id="5PrmdtmWxsQxAu5Mn6Zc-55" value="" style="ellipse;whiteSpace=wrap;html=1;aspect=fixed;" vertex="1" parent="1">
          <mxGeometry x="360" y="460" width="40" height="40" as="geometry" />
        </mxCell>
        <mxCell id="5PrmdtmWxsQxAu5Mn6Zc-56" value="1008" style="ellipse;whiteSpace=wrap;html=1;aspect=fixed;" vertex="1" parent="1">
          <mxGeometry x="365" y="465" width="30" height="30" as="geometry" />
        </mxCell>
        <mxCell id="5PrmdtmWxsQxAu5Mn6Zc-57" value="&amp;lt;" style="text;html=1;align=center;verticalAlign=middle;whiteSpace=wrap;rounded=0;" vertex="1" parent="1">
          <mxGeometry x="230" y="500" width="20" height="20" as="geometry" />
        </mxCell>
        <mxCell id="5PrmdtmWxsQxAu5Mn6Zc-58" value="=" style="text;html=1;align=center;verticalAlign=middle;whiteSpace=wrap;rounded=0;" vertex="1" parent="1">
          <mxGeometry x="320" y="460" width="20" height="20" as="geometry" />
        </mxCell>
        <mxCell id="5PrmdtmWxsQxAu5Mn6Zc-59" value="Distinto" style="text;html=1;align=center;verticalAlign=middle;whiteSpace=wrap;rounded=0;" vertex="1" parent="1">
          <mxGeometry x="310" y="550" width="40" height="10" as="geometry" />
        </mxCell>
        <mxCell id="5PrmdtmWxsQxAu5Mn6Zc-60" value="" style="ellipse;whiteSpace=wrap;html=1;aspect=fixed;" vertex="1" parent="1">
          <mxGeometry x="360" y="540" width="40" height="40" as="geometry" />
        </mxCell>
        <mxCell id="5PrmdtmWxsQxAu5Mn6Zc-61" value="1009" style="ellipse;whiteSpace=wrap;html=1;aspect=fixed;" vertex="1" parent="1">
          <mxGeometry x="365" y="545" width="30" height="30" as="geometry" />
        </mxCell>
        <mxCell id="5PrmdtmWxsQxAu5Mn6Zc-62" value="" style="endArrow=classic;html=1;rounded=0;" edge="1" parent="1">
          <mxGeometry width="50" height="50" relative="1" as="geometry">
            <mxPoint x="200" y="650" as="sourcePoint" />
            <mxPoint x="280" y="650" as="targetPoint" />
          </mxGeometry>
        </mxCell>
        <mxCell id="5PrmdtmWxsQxAu5Mn6Zc-63" value="6" style="ellipse;whiteSpace=wrap;html=1;aspect=fixed;" vertex="1" parent="1">
          <mxGeometry x="280" y="630" width="40" height="40" as="geometry" />
        </mxCell>
        <mxCell id="5PrmdtmWxsQxAu5Mn6Zc-64" value="" style="endArrow=classic;html=1;rounded=0;exitX=0.5;exitY=0;exitDx=0;exitDy=0;" edge="1" parent="1" source="5PrmdtmWxsQxAu5Mn6Zc-63">
          <mxGeometry width="50" height="50" relative="1" as="geometry">
            <mxPoint x="340" y="720" as="sourcePoint" />
            <mxPoint x="360" y="610" as="targetPoint" />
            <Array as="points">
              <mxPoint x="300" y="610" />
            </Array>
          </mxGeometry>
        </mxCell>
        <mxCell id="5PrmdtmWxsQxAu5Mn6Zc-65" value="" style="endArrow=classic;html=1;rounded=0;exitX=0.5;exitY=1;exitDx=0;exitDy=0;" edge="1" parent="1" source="5PrmdtmWxsQxAu5Mn6Zc-63">
          <mxGeometry width="50" height="50" relative="1" as="geometry">
            <mxPoint x="340" y="720" as="sourcePoint" />
            <mxPoint x="360" y="690" as="targetPoint" />
            <Array as="points">
              <mxPoint x="300" y="690" />
            </Array>
          </mxGeometry>
        </mxCell>
        <mxCell id="5PrmdtmWxsQxAu5Mn6Zc-66" value="" style="ellipse;whiteSpace=wrap;html=1;aspect=fixed;" vertex="1" parent="1">
          <mxGeometry x="360" y="590" width="40" height="40" as="geometry" />
        </mxCell>
        <mxCell id="5PrmdtmWxsQxAu5Mn6Zc-67" value="1010" style="ellipse;whiteSpace=wrap;html=1;aspect=fixed;" vertex="1" parent="1">
          <mxGeometry x="365" y="595" width="30" height="30" as="geometry" />
        </mxCell>
        <mxCell id="5PrmdtmWxsQxAu5Mn6Zc-68" value="&amp;gt;" style="text;html=1;align=center;verticalAlign=middle;whiteSpace=wrap;rounded=0;" vertex="1" parent="1">
          <mxGeometry x="230" y="630" width="20" height="20" as="geometry" />
        </mxCell>
        <mxCell id="5PrmdtmWxsQxAu5Mn6Zc-69" value="=" style="text;html=1;align=center;verticalAlign=middle;whiteSpace=wrap;rounded=0;" vertex="1" parent="1">
          <mxGeometry x="320" y="590" width="20" height="20" as="geometry" />
        </mxCell>
        <mxCell id="5PrmdtmWxsQxAu5Mn6Zc-71" value="" style="ellipse;whiteSpace=wrap;html=1;aspect=fixed;" vertex="1" parent="1">
          <mxGeometry x="360" y="670" width="40" height="40" as="geometry" />
        </mxCell>
        <mxCell id="5PrmdtmWxsQxAu5Mn6Zc-72" value="1011" style="ellipse;whiteSpace=wrap;html=1;aspect=fixed;" vertex="1" parent="1">
          <mxGeometry x="365" y="675" width="30" height="30" as="geometry" />
        </mxCell>
        <mxCell id="5PrmdtmWxsQxAu5Mn6Zc-73" value="" style="endArrow=classic;html=1;rounded=0;" edge="1" parent="1">
          <mxGeometry width="50" height="50" relative="1" as="geometry">
            <mxPoint x="200" y="740" as="sourcePoint" />
            <mxPoint x="280" y="740" as="targetPoint" />
          </mxGeometry>
        </mxCell>
        <mxCell id="5PrmdtmWxsQxAu5Mn6Zc-75" value="+" style="text;html=1;align=center;verticalAlign=middle;whiteSpace=wrap;rounded=0;" vertex="1" parent="1">
          <mxGeometry x="230" y="720" width="20" height="20" as="geometry" />
        </mxCell>
        <mxCell id="5PrmdtmWxsQxAu5Mn6Zc-76" value="" style="endArrow=classic;html=1;rounded=0;" edge="1" parent="1">
          <mxGeometry width="50" height="50" relative="1" as="geometry">
            <mxPoint x="200" y="790" as="sourcePoint" />
            <mxPoint x="280" y="790" as="targetPoint" />
          </mxGeometry>
        </mxCell>
        <mxCell id="5PrmdtmWxsQxAu5Mn6Zc-78" value="-" style="text;html=1;align=center;verticalAlign=middle;whiteSpace=wrap;rounded=0;" vertex="1" parent="1">
          <mxGeometry x="230" y="770" width="20" height="20" as="geometry" />
        </mxCell>
        <mxCell id="5PrmdtmWxsQxAu5Mn6Zc-79" value="" style="ellipse;whiteSpace=wrap;html=1;aspect=fixed;" vertex="1" parent="1">
          <mxGeometry x="280" y="720" width="40" height="40" as="geometry" />
        </mxCell>
        <mxCell id="5PrmdtmWxsQxAu5Mn6Zc-80" value="1012" style="ellipse;whiteSpace=wrap;html=1;aspect=fixed;" vertex="1" parent="1">
          <mxGeometry x="285" y="725" width="30" height="30" as="geometry" />
        </mxCell>
        <mxCell id="5PrmdtmWxsQxAu5Mn6Zc-81" value="" style="ellipse;whiteSpace=wrap;html=1;aspect=fixed;" vertex="1" parent="1">
          <mxGeometry x="280" y="770" width="40" height="40" as="geometry" />
        </mxCell>
        <mxCell id="5PrmdtmWxsQxAu5Mn6Zc-82" value="1013" style="ellipse;whiteSpace=wrap;html=1;aspect=fixed;" vertex="1" parent="1">
          <mxGeometry x="285" y="775" width="30" height="30" as="geometry" />
        </mxCell>
        <mxCell id="5PrmdtmWxsQxAu5Mn6Zc-83" value="" style="endArrow=classic;html=1;rounded=0;" edge="1" parent="1">
          <mxGeometry width="50" height="50" relative="1" as="geometry">
            <mxPoint x="200" y="840" as="sourcePoint" />
            <mxPoint x="280" y="840" as="targetPoint" />
          </mxGeometry>
        </mxCell>
        <mxCell id="5PrmdtmWxsQxAu5Mn6Zc-84" value="(" style="text;html=1;align=center;verticalAlign=middle;whiteSpace=wrap;rounded=0;" vertex="1" parent="1">
          <mxGeometry x="230" y="820" width="20" height="20" as="geometry" />
        </mxCell>
        <mxCell id="5PrmdtmWxsQxAu5Mn6Zc-85" value="" style="ellipse;whiteSpace=wrap;html=1;aspect=fixed;" vertex="1" parent="1">
          <mxGeometry x="280" y="820" width="40" height="40" as="geometry" />
        </mxCell>
        <mxCell id="5PrmdtmWxsQxAu5Mn6Zc-86" value="1014" style="ellipse;whiteSpace=wrap;html=1;aspect=fixed;" vertex="1" parent="1">
          <mxGeometry x="285" y="825" width="30" height="30" as="geometry" />
        </mxCell>
        <mxCell id="5PrmdtmWxsQxAu5Mn6Zc-87" value="" style="endArrow=classic;html=1;rounded=0;" edge="1" parent="1">
          <mxGeometry width="50" height="50" relative="1" as="geometry">
            <mxPoint x="200" y="890" as="sourcePoint" />
            <mxPoint x="280" y="890" as="targetPoint" />
          </mxGeometry>
        </mxCell>
        <mxCell id="5PrmdtmWxsQxAu5Mn6Zc-88" value=")" style="text;html=1;align=center;verticalAlign=middle;whiteSpace=wrap;rounded=0;" vertex="1" parent="1">
          <mxGeometry x="230" y="870" width="20" height="20" as="geometry" />
        </mxCell>
        <mxCell id="5PrmdtmWxsQxAu5Mn6Zc-89" value="" style="ellipse;whiteSpace=wrap;html=1;aspect=fixed;" vertex="1" parent="1">
          <mxGeometry x="280" y="870" width="40" height="40" as="geometry" />
        </mxCell>
        <mxCell id="5PrmdtmWxsQxAu5Mn6Zc-90" value="1015" style="ellipse;whiteSpace=wrap;html=1;aspect=fixed;" vertex="1" parent="1">
          <mxGeometry x="285" y="875" width="30" height="30" as="geometry" />
        </mxCell>
        <mxCell id="5PrmdtmWxsQxAu5Mn6Zc-91" value="" style="endArrow=classic;html=1;rounded=0;" edge="1" parent="1">
          <mxGeometry width="50" height="50" relative="1" as="geometry">
            <mxPoint x="200" y="940" as="sourcePoint" />
            <mxPoint x="280" y="940" as="targetPoint" />
          </mxGeometry>
        </mxCell>
        <mxCell id="5PrmdtmWxsQxAu5Mn6Zc-92" value="[" style="text;html=1;align=center;verticalAlign=middle;whiteSpace=wrap;rounded=0;" vertex="1" parent="1">
          <mxGeometry x="230" y="920" width="20" height="20" as="geometry" />
        </mxCell>
        <mxCell id="5PrmdtmWxsQxAu5Mn6Zc-93" value="" style="ellipse;whiteSpace=wrap;html=1;aspect=fixed;" vertex="1" parent="1">
          <mxGeometry x="280" y="920" width="40" height="40" as="geometry" />
        </mxCell>
        <mxCell id="5PrmdtmWxsQxAu5Mn6Zc-94" value="1016" style="ellipse;whiteSpace=wrap;html=1;aspect=fixed;" vertex="1" parent="1">
          <mxGeometry x="285" y="925" width="30" height="30" as="geometry" />
        </mxCell>
        <mxCell id="5PrmdtmWxsQxAu5Mn6Zc-95" value="" style="endArrow=classic;html=1;rounded=0;" edge="1" parent="1">
          <mxGeometry width="50" height="50" relative="1" as="geometry">
            <mxPoint x="200" y="990" as="sourcePoint" />
            <mxPoint x="280" y="990" as="targetPoint" />
          </mxGeometry>
        </mxCell>
        <mxCell id="5PrmdtmWxsQxAu5Mn6Zc-96" value="]" style="text;html=1;align=center;verticalAlign=middle;whiteSpace=wrap;rounded=0;" vertex="1" parent="1">
          <mxGeometry x="230" y="970" width="20" height="20" as="geometry" />
        </mxCell>
        <mxCell id="5PrmdtmWxsQxAu5Mn6Zc-97" value="" style="ellipse;whiteSpace=wrap;html=1;aspect=fixed;" vertex="1" parent="1">
          <mxGeometry x="280" y="970" width="40" height="40" as="geometry" />
        </mxCell>
        <mxCell id="5PrmdtmWxsQxAu5Mn6Zc-98" value="1017" style="ellipse;whiteSpace=wrap;html=1;aspect=fixed;" vertex="1" parent="1">
          <mxGeometry x="285" y="975" width="30" height="30" as="geometry" />
        </mxCell>
        <mxCell id="5PrmdtmWxsQxAu5Mn6Zc-99" value="" style="endArrow=classic;html=1;rounded=0;" edge="1" parent="1">
          <mxGeometry width="50" height="50" relative="1" as="geometry">
            <mxPoint x="200" y="1040" as="sourcePoint" />
            <mxPoint x="280" y="1040" as="targetPoint" />
          </mxGeometry>
        </mxCell>
        <mxCell id="5PrmdtmWxsQxAu5Mn6Zc-100" value="." style="text;html=1;align=center;verticalAlign=middle;whiteSpace=wrap;rounded=0;" vertex="1" parent="1">
          <mxGeometry x="230" y="1020" width="20" height="20" as="geometry" />
        </mxCell>
        <mxCell id="5PrmdtmWxsQxAu5Mn6Zc-101" value="" style="ellipse;whiteSpace=wrap;html=1;aspect=fixed;" vertex="1" parent="1">
          <mxGeometry x="280" y="1020" width="40" height="40" as="geometry" />
        </mxCell>
        <mxCell id="5PrmdtmWxsQxAu5Mn6Zc-102" value="1018" style="ellipse;whiteSpace=wrap;html=1;aspect=fixed;" vertex="1" parent="1">
          <mxGeometry x="285" y="1025" width="30" height="30" as="geometry" />
        </mxCell>
        <mxCell id="5PrmdtmWxsQxAu5Mn6Zc-103" value="" style="endArrow=classic;html=1;rounded=0;" edge="1" parent="1">
          <mxGeometry width="50" height="50" relative="1" as="geometry">
            <mxPoint x="200" y="1090" as="sourcePoint" />
            <mxPoint x="280" y="1090" as="targetPoint" />
          </mxGeometry>
        </mxCell>
        <mxCell id="5PrmdtmWxsQxAu5Mn6Zc-104" value="," style="text;html=1;align=center;verticalAlign=middle;whiteSpace=wrap;rounded=0;" vertex="1" parent="1">
          <mxGeometry x="230" y="1070" width="20" height="20" as="geometry" />
        </mxCell>
        <mxCell id="5PrmdtmWxsQxAu5Mn6Zc-105" value="" style="ellipse;whiteSpace=wrap;html=1;aspect=fixed;" vertex="1" parent="1">
          <mxGeometry x="280" y="1070" width="40" height="40" as="geometry" />
        </mxCell>
        <mxCell id="5PrmdtmWxsQxAu5Mn6Zc-106" value="1019" style="ellipse;whiteSpace=wrap;html=1;aspect=fixed;" vertex="1" parent="1">
          <mxGeometry x="285" y="1075" width="30" height="30" as="geometry" />
        </mxCell>
        <mxCell id="5PrmdtmWxsQxAu5Mn6Zc-136" value="" style="endArrow=classic;html=1;rounded=0;" edge="1" parent="1">
          <mxGeometry width="50" height="50" relative="1" as="geometry">
            <mxPoint x="200" y="1140" as="sourcePoint" />
            <mxPoint x="275" y="1140" as="targetPoint" />
          </mxGeometry>
        </mxCell>
        <mxCell id="5PrmdtmWxsQxAu5Mn6Zc-137" value="[A-Z a-z]+" style="text;html=1;align=center;verticalAlign=middle;whiteSpace=wrap;rounded=0;" vertex="1" parent="1">
          <mxGeometry x="207.5" y="1120" width="65" height="20" as="geometry" />
        </mxCell>
        <mxCell id="5PrmdtmWxsQxAu5Mn6Zc-138" value="8" style="ellipse;whiteSpace=wrap;html=1;aspect=fixed;" vertex="1" parent="1">
          <mxGeometry x="275" y="1120" width="40" height="40" as="geometry" />
        </mxCell>
        <mxCell id="5PrmdtmWxsQxAu5Mn6Zc-139" value="" style="endArrow=classic;html=1;rounded=0;exitX=1;exitY=1;exitDx=0;exitDy=0;entryX=0;entryY=1;entryDx=0;entryDy=0;" edge="1" parent="1" source="5PrmdtmWxsQxAu5Mn6Zc-138" target="5PrmdtmWxsQxAu5Mn6Zc-138">
          <mxGeometry width="50" height="50" relative="1" as="geometry">
            <mxPoint x="155" y="1210" as="sourcePoint" />
            <mxPoint x="275" y="1160" as="targetPoint" />
            <Array as="points">
              <mxPoint x="281" y="1190" />
            </Array>
          </mxGeometry>
        </mxCell>
        <mxCell id="5PrmdtmWxsQxAu5Mn6Zc-141" value="" style="endArrow=classic;html=1;rounded=0;exitX=1;exitY=0.5;exitDx=0;exitDy=0;" edge="1" parent="1" source="5PrmdtmWxsQxAu5Mn6Zc-138">
          <mxGeometry width="50" height="50" relative="1" as="geometry">
            <mxPoint x="336" y="1140" as="sourcePoint" />
            <mxPoint x="376" y="1140" as="targetPoint" />
          </mxGeometry>
        </mxCell>
        <mxCell id="5PrmdtmWxsQxAu5Mn6Zc-142" value="7" style="ellipse;whiteSpace=wrap;html=1;aspect=fixed;" vertex="1" parent="1">
          <mxGeometry x="375" y="1120" width="40" height="40" as="geometry" />
        </mxCell>
        <mxCell id="5PrmdtmWxsQxAu5Mn6Zc-143" value="1021" style="ellipse;whiteSpace=wrap;html=1;aspect=fixed;" vertex="1" parent="1">
          <mxGeometry x="280" y="1125" width="30" height="30" as="geometry" />
        </mxCell>
        <mxCell id="5PrmdtmWxsQxAu5Mn6Zc-144" value="Cualquiera" style="text;html=1;align=center;verticalAlign=middle;whiteSpace=wrap;rounded=0;" vertex="1" parent="1">
          <mxGeometry x="324" y="1120" width="40" height="10" as="geometry" />
        </mxCell>
        <mxCell id="5PrmdtmWxsQxAu5Mn6Zc-156" value="[A-Z a-z]+" style="text;html=1;align=center;verticalAlign=middle;whiteSpace=wrap;rounded=0;" vertex="1" parent="1">
          <mxGeometry x="295" y="1170" width="65" height="20" as="geometry" />
        </mxCell>
        <mxCell id="5PrmdtmWxsQxAu5Mn6Zc-166" value="" style="endArrow=classic;html=1;rounded=0;" edge="1" parent="1">
          <mxGeometry width="50" height="50" relative="1" as="geometry">
            <mxPoint x="200" y="1220" as="sourcePoint" />
            <mxPoint x="275" y="1220" as="targetPoint" />
          </mxGeometry>
        </mxCell>
        <mxCell id="5PrmdtmWxsQxAu5Mn6Zc-167" value="[A-Z a-z]+" style="text;html=1;align=center;verticalAlign=middle;whiteSpace=wrap;rounded=0;" vertex="1" parent="1">
          <mxGeometry x="197" y="1198" width="82.5" height="20" as="geometry" />
        </mxCell>
        <mxCell id="5PrmdtmWxsQxAu5Mn6Zc-168" value="9" style="ellipse;whiteSpace=wrap;html=1;aspect=fixed;" vertex="1" parent="1">
          <mxGeometry x="275" y="1200" width="40" height="40" as="geometry" />
        </mxCell>
        <mxCell id="5PrmdtmWxsQxAu5Mn6Zc-169" value="" style="endArrow=classic;html=1;rounded=0;exitX=1;exitY=1;exitDx=0;exitDy=0;entryX=0;entryY=1;entryDx=0;entryDy=0;" edge="1" parent="1" source="5PrmdtmWxsQxAu5Mn6Zc-168" target="5PrmdtmWxsQxAu5Mn6Zc-168">
          <mxGeometry width="50" height="50" relative="1" as="geometry">
            <mxPoint x="155" y="1290" as="sourcePoint" />
            <mxPoint x="275" y="1240" as="targetPoint" />
            <Array as="points">
              <mxPoint x="281" y="1270" />
            </Array>
          </mxGeometry>
        </mxCell>
        <mxCell id="5PrmdtmWxsQxAu5Mn6Zc-170" value="" style="endArrow=classic;html=1;rounded=0;exitX=1;exitY=0.5;exitDx=0;exitDy=0;" edge="1" parent="1" source="5PrmdtmWxsQxAu5Mn6Zc-168">
          <mxGeometry width="50" height="50" relative="1" as="geometry">
            <mxPoint x="336" y="1220" as="sourcePoint" />
            <mxPoint x="376" y="1220" as="targetPoint" />
          </mxGeometry>
        </mxCell>
        <mxCell id="5PrmdtmWxsQxAu5Mn6Zc-171" value="8" style="ellipse;whiteSpace=wrap;html=1;aspect=fixed;" vertex="1" parent="1">
          <mxGeometry x="375" y="1200" width="40" height="40" as="geometry" />
        </mxCell>
        <mxCell id="5PrmdtmWxsQxAu5Mn6Zc-172" value="1022" style="ellipse;whiteSpace=wrap;html=1;aspect=fixed;" vertex="1" parent="1">
          <mxGeometry x="279.5" y="1205" width="30" height="30" as="geometry" />
        </mxCell>
        <mxCell id="5PrmdtmWxsQxAu5Mn6Zc-173" value="Cualquiera" style="text;html=1;align=center;verticalAlign=middle;whiteSpace=wrap;rounded=0;" vertex="1" parent="1">
          <mxGeometry x="324" y="1200" width="40" height="10" as="geometry" />
        </mxCell>
        <mxCell id="5PrmdtmWxsQxAu5Mn6Zc-174" value="[A-Z a-z]+" style="text;html=1;align=center;verticalAlign=middle;whiteSpace=wrap;rounded=0;" vertex="1" parent="1">
          <mxGeometry x="295" y="1250" width="85" height="20" as="geometry" />
        </mxCell>
        <mxCell id="5PrmdtmWxsQxAu5Mn6Zc-175" value="" style="endArrow=classic;html=1;rounded=0;" edge="1" parent="1">
          <mxGeometry width="50" height="50" relative="1" as="geometry">
            <mxPoint x="200.5" y="1360" as="sourcePoint" />
            <mxPoint x="280.5" y="1360" as="targetPoint" />
          </mxGeometry>
        </mxCell>
        <mxCell id="5PrmdtmWxsQxAu5Mn6Zc-176" value="[0-9]+" style="text;html=1;align=center;verticalAlign=middle;whiteSpace=wrap;rounded=0;" vertex="1" parent="1">
          <mxGeometry x="210.5" y="1340" width="40" height="20" as="geometry" />
        </mxCell>
        <mxCell id="5PrmdtmWxsQxAu5Mn6Zc-177" value="10" style="ellipse;whiteSpace=wrap;html=1;aspect=fixed;" vertex="1" parent="1">
          <mxGeometry x="280.5" y="1340" width="40" height="40" as="geometry" />
        </mxCell>
        <mxCell id="5PrmdtmWxsQxAu5Mn6Zc-178" value="" style="endArrow=classic;html=1;rounded=0;exitX=1;exitY=1;exitDx=0;exitDy=0;entryX=0;entryY=1;entryDx=0;entryDy=0;" edge="1" parent="1" source="5PrmdtmWxsQxAu5Mn6Zc-177" target="5PrmdtmWxsQxAu5Mn6Zc-177">
          <mxGeometry width="50" height="50" relative="1" as="geometry">
            <mxPoint x="160.5" y="1430" as="sourcePoint" />
            <mxPoint x="280.5" y="1380" as="targetPoint" />
            <Array as="points">
              <mxPoint x="286.5" y="1410" />
            </Array>
          </mxGeometry>
        </mxCell>
        <mxCell id="5PrmdtmWxsQxAu5Mn6Zc-179" value="[0-9]+" style="text;html=1;align=center;verticalAlign=middle;whiteSpace=wrap;rounded=0;" vertex="1" parent="1">
          <mxGeometry x="245" y="1390" width="40" height="20" as="geometry" />
        </mxCell>
        <mxCell id="5PrmdtmWxsQxAu5Mn6Zc-189" value="1023" style="ellipse;whiteSpace=wrap;html=1;aspect=fixed;" vertex="1" parent="1">
          <mxGeometry x="285.5" y="1345" width="30" height="30" as="geometry" />
        </mxCell>
        <mxCell id="5PrmdtmWxsQxAu5Mn6Zc-197" value="" style="endArrow=classic;html=1;rounded=0;exitX=1;exitY=0;exitDx=0;exitDy=0;" edge="1" parent="1" source="5PrmdtmWxsQxAu5Mn6Zc-177">
          <mxGeometry width="50" height="50" relative="1" as="geometry">
            <mxPoint x="380" y="1290" as="sourcePoint" />
            <mxPoint x="370" y="1320" as="targetPoint" />
            <Array as="points">
              <mxPoint x="315" y="1320" />
            </Array>
          </mxGeometry>
        </mxCell>
        <mxCell id="5PrmdtmWxsQxAu5Mn6Zc-198" value="" style="endArrow=classic;html=1;rounded=0;exitX=1;exitY=0.5;exitDx=0;exitDy=0;" edge="1" parent="1" source="5PrmdtmWxsQxAu5Mn6Zc-177">
          <mxGeometry width="50" height="50" relative="1" as="geometry">
            <mxPoint x="330" y="1366" as="sourcePoint" />
            <mxPoint x="440" y="1360" as="targetPoint" />
            <Array as="points">
              <mxPoint x="330" y="1360" />
              <mxPoint x="350" y="1360" />
            </Array>
          </mxGeometry>
        </mxCell>
        <mxCell id="5PrmdtmWxsQxAu5Mn6Zc-199" value="." style="text;html=1;align=center;verticalAlign=middle;whiteSpace=wrap;rounded=0;" vertex="1" parent="1">
          <mxGeometry x="320.5" y="1300" width="40" height="20" as="geometry" />
        </mxCell>
        <mxCell id="5PrmdtmWxsQxAu5Mn6Zc-200" value="10" style="ellipse;whiteSpace=wrap;html=1;aspect=fixed;" vertex="1" parent="1">
          <mxGeometry x="365.5" y="1300" width="40" height="40" as="geometry" />
        </mxCell>
        <mxCell id="5PrmdtmWxsQxAu5Mn6Zc-201" value="" style="endArrow=classic;html=1;rounded=0;exitX=0.5;exitY=1;exitDx=0;exitDy=0;entryX=0;entryY=1;entryDx=0;entryDy=0;" edge="1" parent="1" source="5PrmdtmWxsQxAu5Mn6Zc-200" target="5PrmdtmWxsQxAu5Mn6Zc-200">
          <mxGeometry width="50" height="50" relative="1" as="geometry">
            <mxPoint x="245.5" y="1390" as="sourcePoint" />
            <mxPoint x="365.5" y="1340" as="targetPoint" />
            <Array as="points">
              <mxPoint x="371" y="1350" />
            </Array>
          </mxGeometry>
        </mxCell>
        <mxCell id="5PrmdtmWxsQxAu5Mn6Zc-202" value="[0-9]+" style="text;html=1;align=center;verticalAlign=middle;whiteSpace=wrap;rounded=0;" vertex="1" parent="1">
          <mxGeometry x="377" y="1336" width="40" height="20" as="geometry" />
        </mxCell>
        <mxCell id="5PrmdtmWxsQxAu5Mn6Zc-203" value="1024" style="ellipse;whiteSpace=wrap;html=1;aspect=fixed;" vertex="1" parent="1">
          <mxGeometry x="370.5" y="1305" width="30" height="30" as="geometry" />
        </mxCell>
        <mxCell id="5PrmdtmWxsQxAu5Mn6Zc-204" value="e" style="text;html=1;align=center;verticalAlign=middle;whiteSpace=wrap;rounded=0;" vertex="1" parent="1">
          <mxGeometry x="325.5" y="1344" width="40" height="20" as="geometry" />
        </mxCell>
        <mxCell id="5PrmdtmWxsQxAu5Mn6Zc-205" value="9" style="ellipse;whiteSpace=wrap;html=1;aspect=fixed;" vertex="1" parent="1">
          <mxGeometry x="440" y="1340" width="40" height="40" as="geometry" />
        </mxCell>
        <mxCell id="5PrmdtmWxsQxAu5Mn6Zc-207" value="" style="endArrow=classic;html=1;rounded=0;exitX=0.5;exitY=1;exitDx=0;exitDy=0;" edge="1" parent="1" source="5PrmdtmWxsQxAu5Mn6Zc-205">
          <mxGeometry width="50" height="50" relative="1" as="geometry">
            <mxPoint x="460" y="1395" as="sourcePoint" />
            <mxPoint x="540" y="1395" as="targetPoint" />
            <Array as="points">
              <mxPoint x="460" y="1395" />
            </Array>
          </mxGeometry>
        </mxCell>
        <mxCell id="5PrmdtmWxsQxAu5Mn6Zc-208" value="[0-9]+" style="text;html=1;align=center;verticalAlign=middle;whiteSpace=wrap;rounded=0;" vertex="1" parent="1">
          <mxGeometry x="470" y="1375" width="40" height="20" as="geometry" />
        </mxCell>
        <mxCell id="5PrmdtmWxsQxAu5Mn6Zc-209" value="10" style="ellipse;whiteSpace=wrap;html=1;aspect=fixed;" vertex="1" parent="1">
          <mxGeometry x="540" y="1375" width="40" height="40" as="geometry" />
        </mxCell>
        <mxCell id="5PrmdtmWxsQxAu5Mn6Zc-210" value="" style="endArrow=classic;html=1;rounded=0;exitX=1;exitY=1;exitDx=0;exitDy=0;entryX=0;entryY=1;entryDx=0;entryDy=0;" edge="1" parent="1" source="5PrmdtmWxsQxAu5Mn6Zc-209" target="5PrmdtmWxsQxAu5Mn6Zc-209">
          <mxGeometry width="50" height="50" relative="1" as="geometry">
            <mxPoint x="420" y="1465" as="sourcePoint" />
            <mxPoint x="540" y="1415" as="targetPoint" />
            <Array as="points">
              <mxPoint x="546" y="1445" />
            </Array>
          </mxGeometry>
        </mxCell>
        <mxCell id="5PrmdtmWxsQxAu5Mn6Zc-211" value="[0-9]+" style="text;html=1;align=center;verticalAlign=middle;whiteSpace=wrap;rounded=0;" vertex="1" parent="1">
          <mxGeometry x="504.5" y="1425" width="40" height="20" as="geometry" />
        </mxCell>
        <mxCell id="5PrmdtmWxsQxAu5Mn6Zc-212" value="1025" style="ellipse;whiteSpace=wrap;html=1;aspect=fixed;" vertex="1" parent="1">
          <mxGeometry x="545" y="1380" width="30" height="30" as="geometry" />
        </mxCell>
        <mxCell id="5PrmdtmWxsQxAu5Mn6Zc-213" value="" style="endArrow=classic;html=1;rounded=0;exitX=0.5;exitY=0;exitDx=0;exitDy=0;" edge="1" parent="1" source="5PrmdtmWxsQxAu5Mn6Zc-205">
          <mxGeometry width="50" height="50" relative="1" as="geometry">
            <mxPoint x="460" y="1338" as="sourcePoint" />
            <mxPoint x="515" y="1312" as="targetPoint" />
            <Array as="points">
              <mxPoint x="460" y="1312" />
            </Array>
          </mxGeometry>
        </mxCell>
        <mxCell id="5PrmdtmWxsQxAu5Mn6Zc-214" value="-" style="text;html=1;align=center;verticalAlign=middle;whiteSpace=wrap;rounded=0;" vertex="1" parent="1">
          <mxGeometry x="465.5" y="1292" width="40" height="20" as="geometry" />
        </mxCell>
        <mxCell id="5PrmdtmWxsQxAu5Mn6Zc-215" value="10" style="ellipse;whiteSpace=wrap;html=1;aspect=fixed;" vertex="1" parent="1">
          <mxGeometry x="510.5" y="1292" width="40" height="40" as="geometry" />
        </mxCell>
        <mxCell id="5PrmdtmWxsQxAu5Mn6Zc-216" value="" style="endArrow=classic;html=1;rounded=0;exitX=0.5;exitY=1;exitDx=0;exitDy=0;entryX=0;entryY=1;entryDx=0;entryDy=0;" edge="1" parent="1" source="5PrmdtmWxsQxAu5Mn6Zc-215" target="5PrmdtmWxsQxAu5Mn6Zc-215">
          <mxGeometry width="50" height="50" relative="1" as="geometry">
            <mxPoint x="390.5" y="1382" as="sourcePoint" />
            <mxPoint x="510.5" y="1332" as="targetPoint" />
            <Array as="points">
              <mxPoint x="516" y="1342" />
            </Array>
          </mxGeometry>
        </mxCell>
        <mxCell id="5PrmdtmWxsQxAu5Mn6Zc-217" value="[0-9]+" style="text;html=1;align=center;verticalAlign=middle;whiteSpace=wrap;rounded=0;" vertex="1" parent="1">
          <mxGeometry x="522" y="1328" width="40" height="20" as="geometry" />
        </mxCell>
        <mxCell id="5PrmdtmWxsQxAu5Mn6Zc-218" value="1026" style="ellipse;whiteSpace=wrap;html=1;aspect=fixed;" vertex="1" parent="1">
          <mxGeometry x="515.5" y="1297" width="30" height="30" as="geometry" />
        </mxCell>
        <mxCell id="5PrmdtmWxsQxAu5Mn6Zc-219" value="" style="endArrow=classic;html=1;rounded=0;exitX=1;exitY=0.5;exitDx=0;exitDy=0;" edge="1" parent="1">
          <mxGeometry width="50" height="50" relative="1" as="geometry">
            <mxPoint x="480" y="1360" as="sourcePoint" />
            <mxPoint x="599" y="1360" as="targetPoint" />
            <Array as="points">
              <mxPoint x="489" y="1360" />
              <mxPoint x="509" y="1360" />
            </Array>
          </mxGeometry>
        </mxCell>
        <mxCell id="5PrmdtmWxsQxAu5Mn6Zc-220" value="Cualquiera" style="text;html=1;align=center;verticalAlign=middle;whiteSpace=wrap;rounded=0;" vertex="1" parent="1">
          <mxGeometry x="500" y="1350" width="40" height="10" as="geometry" />
        </mxCell>
        <mxCell id="5PrmdtmWxsQxAu5Mn6Zc-221" value="10" style="ellipse;whiteSpace=wrap;html=1;aspect=fixed;" vertex="1" parent="1">
          <mxGeometry x="600" y="1340" width="40" height="40" as="geometry" />
        </mxCell>
        <mxCell id="5PrmdtmWxsQxAu5Mn6Zc-222" value="" style="endArrow=classic;html=1;rounded=0;exitX=1;exitY=1;exitDx=0;exitDy=0;" edge="1" parent="1" source="5PrmdtmWxsQxAu5Mn6Zc-177">
          <mxGeometry width="50" height="50" relative="1" as="geometry">
            <mxPoint x="315" y="1395" as="sourcePoint" />
            <mxPoint x="395" y="1410" as="targetPoint" />
            <Array as="points">
              <mxPoint x="315" y="1410" />
            </Array>
          </mxGeometry>
        </mxCell>
        <mxCell id="5PrmdtmWxsQxAu5Mn6Zc-223" value="Cualquiera" style="text;html=1;align=center;verticalAlign=middle;whiteSpace=wrap;rounded=0;" vertex="1" parent="1">
          <mxGeometry x="325" y="1390" width="40" height="20" as="geometry" />
        </mxCell>
        <mxCell id="5PrmdtmWxsQxAu5Mn6Zc-224" value="11" style="ellipse;whiteSpace=wrap;html=1;aspect=fixed;" vertex="1" parent="1">
          <mxGeometry x="395" y="1390" width="40" height="40" as="geometry" />
        </mxCell>
      </root>
    </mxGraphModel>
  </diagram>
</mxfile>
